<?xml version="1.0" encoding="utf-8"?>
<!-- Uploaded to: SVG Repo, www.svgrepo.com, Generator: SVG Repo Mixer Tools -->
<svg width="800px" height="800px" viewBox="0 0 1024 1024" class="icon"  version="1.1" xmlns="http://www.w3.org/2000/svg"><path d="M887.3 981.3H136.7C61.3 981.3 0 920 0 844.6V179.4C0 104 61.3 42.7 136.7 42.7h184.6c25.5 0 49.4 11.2 65.7 30.8l81 97.2h427.1c71.1 0 128.9 57.8 128.9 128.9v545.1c0 75.3-61.3 136.6-136.7 136.6zM136.7 128c-28.3 0-51.4 23-51.4 51.4v665.2c0 28.3 23 51.4 51.4 51.4h750.6c28.3 0 51.4-23 51.4-51.4V299.5c0-24-19.5-43.5-43.6-43.5h-427c-25.5 0-49.4-11.2-65.7-30.8l-81-97.2H136.7z" fill="#3688FF" /><path d="M970.7 458.7H448c-23.6 0-42.7-19.1-42.7-42.7s19.1-42.7 42.7-42.7h522.7c23.6 0 42.7 19.1 42.7 42.7s-19.2 42.7-42.7 42.7z" fill="#5F6379" /></svg>